<?xml version="1.0" encoding="utf-8"?>
<!-- Generator: Adobe Illustrator 16.0.0, SVG Export Plug-In . SVG Version: 6.00 Build 0)  -->
<!DOCTYPE svg PUBLIC "-//W3C//DTD SVG 1.1//EN" "http://www.w3.org/Graphics/SVG/1.1/DTD/svg11.dtd">
<svg version="1.1" id="Layer_1" xmlns="http://www.w3.org/2000/svg" xmlns:xlink="http://www.w3.org/1999/xlink" x="0px" y="0px"
	 width="100px" height="68.08px" viewBox="0 0 100 68.08" enable-background="new 0 0 100 68.08" xml:space="preserve">
<g>
	<path d="M91.66,8.457H71.958V8.17C71.958,3.656,68.292,0,63.786,0H35.591c-4.505,0-8.162,3.657-8.162,8.171v0.286h-4.893V5.548
		H9.195v2.908H7.718C3.461,8.457,0,12.214,0,16.84v42.848c0,4.643,3.461,8.392,7.718,8.392H91.66c4.264,0,7.729-3.749,7.729-8.392
		V16.84C99.389,12.214,95.924,8.457,91.66,8.457z M12.022,22.912c-1.561,0-2.823-1.264-2.823-2.824c0-1.56,1.263-2.823,2.823-2.823
		c1.558,0,2.823,1.263,2.823,2.823C14.846,21.647,13.58,22.912,12.022,22.912z M49.692,64.405
		c-14.411,0-26.136-11.726-26.136-26.137c0-14.412,11.725-26.134,26.136-26.134c14.412,0,26.132,11.723,26.132,26.134
		C75.824,52.68,64.104,64.405,49.692,64.405z M91.557,19.249h-9.836c-0.585,0-1.057-0.726-1.057-1.621
		c0-0.895,0.472-1.623,1.057-1.623h9.836c0.578,0,1.049,0.728,1.049,1.623C92.605,18.522,92.135,19.249,91.557,19.249z"/>
	<path d="M49.692,17.298c-11.562,0-20.974,9.408-20.974,20.971c0,11.565,9.413,20.976,20.974,20.976
		c11.56,0,20.977-9.41,20.977-20.976C70.669,26.706,61.252,17.298,49.692,17.298z M42.807,25.361
		c-5.327,0.889-6.423,7.365-6.468,7.641c-0.105,0.634-0.651,1.088-1.273,1.088c-0.065,0-0.135-0.005-0.203-0.019
		c-0.703-0.111-1.181-0.768-1.073-1.471c0.056-0.351,1.418-8.59,8.592-9.785c0.708-0.12,1.368,0.357,1.484,1.058
		C43.984,24.578,43.508,25.245,42.807,25.361z"/>
</g>
</svg>
