<?xml version="1.0" encoding="utf-8"?>
<!-- Generator: Adobe Illustrator 16.0.0, SVG Export Plug-In . SVG Version: 6.00 Build 0)  -->
<!DOCTYPE svg PUBLIC "-//W3C//DTD SVG 1.1//EN" "http://www.w3.org/Graphics/SVG/1.1/DTD/svg11.dtd">
<svg version="1.1" id="Layer_1" xmlns="http://www.w3.org/2000/svg" xmlns:xlink="http://www.w3.org/1999/xlink" x="0px" y="0px"
	 width="100px" height="100px" viewBox="0 0 100 100" enable-background="new 0 0 100 100" xml:space="preserve">
<path d="M94.759,74.996l-38.08-22.098l36.49-21.179c1.857,1.869,3.992,2.676,5.444,1.837
	c2.009-1.16,1.951-5.023-0.129-8.627c-2.081-3.604-5.397-5.585-7.406-4.424c-1.408,0.812-1.781,2.959-1.174,5.406L50.042,49.045
	L10.179,25.911c0.606-2.447,0.235-4.594-1.173-5.406c-2.01-1.161-5.326,0.821-7.407,4.424c-2.081,3.604-2.138,7.467-0.129,8.627
	c1.453,0.839,3.586,0.031,5.443-1.837l36.49,21.179L5.323,74.996c0,0-6.095,5.424-5.24,6.895c0.852,1.477,8.587-1.127,8.587-1.127
	L50.042,56.75l41.371,24.014c0,0,7.736,2.604,8.587,1.127C100.856,80.42,94.759,74.996,94.759,74.996z"/>
</svg>
