<?xml version="1.0" encoding="utf-8"?>
<!-- Generator: Adobe Illustrator 16.0.0, SVG Export Plug-In . SVG Version: 6.00 Build 0)  -->
<!DOCTYPE svg PUBLIC "-//W3C//DTD SVG 1.1//EN" "http://www.w3.org/Graphics/SVG/1.1/DTD/svg11.dtd">
<svg version="1.1" id="Layer_1" xmlns="http://www.w3.org/2000/svg" xmlns:xlink="http://www.w3.org/1999/xlink" x="0px" y="0px"
	 width="150px" height="100px" viewBox="0 0 150 100" preserveAspectRatio="none" style="enable-background:new 0 0 150 100;" xml:space="preserve">
<g fill="#444444">
	<path d="M60,6.1C58.7,1.6,53.9-1,49.3,0.3c-4.5,1.4-7.1,6.1-5.8,10.7l24.8,82.9c1.4,4.5,6.1,7.1,10.7,5.8c4.5-1.4,7.1-6.1,5.8-10.7L60,6.1z"/>
	<path d="M38.4,6.1C37,1.6,32.3-1,27.7,0.3C23.2,1.7,20.6,6.5,22,11l24.8,82.9c1.4,4.5,6.1,7.1,10.7,5.8c4.5-1.4,7.1-6.1,5.8-10.7L38.4,6.1z"/>
	<path d="M103.3,6.1c-1.4-4.5-6.1-7.1-10.7-5.8c-4.5,1.4-7.1,6.1-5.8,10.7l24.8,82.9c1.4,4.5,6.1,7.1,10.7,5.8 c4.5-1.4,7.1-6.1,5.8-10.7L103.3,6.1z"/>
	<path d="M81.6,6.1C80.3,1.6,75.5-1,71,0.3c-4.5,1.4-7.1,6.1-5.8,10.7L90,93.9c1.4,4.5,6.1,7.1,10.7,5.8c4.5-1.4,7.1-6.1,5.8-10.7L81.6,6.1z"/>
	<path d="M114.5,0c-4.5,1.4-7.4,6.5-6.1,11l24.8,82.9c1.4,4.5,6.1,7.1,10.7,5.8c4.5-1.4,6.1-5.4,6.1-10.7V0H114.5z"/>
	<path d="M16.8,6.1C15.4,1.6,10.6-1,6.1,0.3C1.6,1.7,0,5.7,0,11v89h35.5c4.5-1.4,7.4-6.5,6.1-11L16.8,6.1z"/>
</g>
</svg>
